<svg width="42" height="65" viewBox="0 0 42 65" fill="none" xmlns="http://www.w3.org/2000/svg">
<path d="M13.3588 10.4904C24.1916 11.435 31.7797 21.5004 32.7045 33.1264C33.6445 44.9618 28.4455 57.1196 20.3639 63.7401C18.6791 65.1169 16.8384 62.0993 18.339 60.6219C24.8918 54.1643 29.2409 44.6634 29.0357 34.341C28.9696 29.8608 27.6465 25.3988 25.2541 21.5877C22.1359 16.5739 17.6504 14.6297 12.8966 12.5486C11.7525 12.049 12.3686 10.4103 13.3588 10.4904Z" fill="white"/>
<path d="M2.59877 6.57015C7.37326 5.86295 12.6139 4.69105 17.5114 6.32794C17.6877 6.37683 17.8461 6.49868 17.9538 6.6683C18.0615 6.83785 18.1103 7.04223 18.0899 7.23888C18.0696 7.43551 17.9816 7.60938 17.8445 7.72451C17.7073 7.83959 17.5314 7.88698 17.3531 7.85696C12.8969 7.39085 8.724 8.01889 4.46939 8.86595C5.88007 11.7881 7.73032 14.5665 8.73244 17.6444C8.82332 17.9195 8.82674 18.2137 8.74206 18.4748C8.65738 18.7359 8.4901 18.9468 8.27005 19.0701C8.05001 19.1934 7.79139 19.221 7.54025 19.148C7.2892 19.075 7.06184 18.9062 6.89876 18.6715C4.76569 15.4592 3.01879 11.9648 1.70858 8.28953C1.64366 8.10034 1.61577 7.90083 1.62689 7.70533C1.63809 7.5098 1.68795 7.32316 1.7731 7.15876C1.85818 6.99438 1.97634 6.85635 2.11915 6.75456C2.26189 6.6528 2.42569 6.58981 2.59877 6.57015Z" fill="white"/>
</svg>
