<svg width="46" height="46" viewBox="0 0 46 46" fill="none" xmlns="http://www.w3.org/2000/svg">
<path d="M36.4167 3.83333H34.5V1.91667C34.5 1.40833 34.2981 0.920823 33.9386 0.561379C33.5792 0.201934 33.0917 0 32.5833 0C32.075 0 31.5875 0.201934 31.228 0.561379C30.8686 0.920823 30.6667 1.40833 30.6667 1.91667V3.83333H15.3333V1.91667C15.3333 1.40833 15.1314 0.920823 14.772 0.561379C14.4125 0.201934 13.925 0 13.4167 0C12.9083 0 12.4208 0.201934 12.0614 0.561379C11.7019 0.920823 11.5 1.40833 11.5 1.91667V3.83333H9.58333C7.04261 3.83638 4.60682 4.84702 2.81025 6.64359C1.01369 8.44015 0.00304339 10.8759 0 13.4167L0 36.4167C0.00304339 38.9574 1.01369 41.3932 2.81025 43.1897C4.60682 44.9863 7.04261 45.997 9.58333 46H36.4167C38.9574 45.997 41.3932 44.9863 43.1897 43.1897C44.9863 41.3932 45.997 38.9574 46 36.4167V13.4167C45.997 10.8759 44.9863 8.44015 43.1897 6.64359C41.3932 4.84702 38.9574 3.83638 36.4167 3.83333ZM3.83333 13.4167C3.83333 11.8917 4.43914 10.4291 5.51747 9.3508C6.5958 8.27247 8.05834 7.66667 9.58333 7.66667H36.4167C37.9417 7.66667 39.4042 8.27247 40.4825 9.3508C41.5609 10.4291 42.1667 11.8917 42.1667 13.4167V15.3333H3.83333V13.4167ZM36.4167 42.1667H9.58333C8.05834 42.1667 6.5958 41.5609 5.51747 40.4825C4.43914 39.4042 3.83333 37.9417 3.83333 36.4167V19.1667H42.1667V36.4167C42.1667 37.9417 41.5609 39.4042 40.4825 40.4825C39.4042 41.5609 37.9417 42.1667 36.4167 42.1667Z" fill="black"/>
<path d="M23 31.625C24.5878 31.625 25.875 30.3378 25.875 28.75C25.875 27.1622 24.5878 25.875 23 25.875C21.4122 25.875 20.125 27.1622 20.125 28.75C20.125 30.3378 21.4122 31.625 23 31.625Z" fill="black"/>
<path d="M13.4167 31.625C15.0045 31.625 16.2917 30.3378 16.2917 28.75C16.2917 27.1622 15.0045 25.875 13.4167 25.875C11.8289 25.875 10.5417 27.1622 10.5417 28.75C10.5417 30.3378 11.8289 31.625 13.4167 31.625Z" fill="black"/>
<path d="M32.5833 31.625C34.1711 31.625 35.4583 30.3378 35.4583 28.75C35.4583 27.1622 34.1711 25.875 32.5833 25.875C30.9955 25.875 29.7083 27.1622 29.7083 28.75C29.7083 30.3378 30.9955 31.625 32.5833 31.625Z" fill="black"/>
</svg>
