<svg width="400" height="150" viewBox="0 0 400 150" fill="none" xmlns="http://www.w3.org/2000/svg">
<mask id="path-1-inside-1_2269_201" fill="white">
<path d="M0 20C0 8.9543 8.95431 0 20 0H380C391.046 0 400 8.95431 400 20V130C400 141.046 391.046 150 380 150H20C8.95431 150 0 141.046 0 130V20Z"/>
</mask>
<path d="M20 3H380V-3H20V3ZM397 20V130H403V20H397ZM380 147H20V153H380V147ZM3 130V20H-3V130H3ZM20 147C10.6112 147 3 139.389 3 130H-3C-3 142.703 7.29746 153 20 153V147ZM397 130C397 139.389 389.389 147 380 147V153C392.703 153 403 142.703 403 130H397ZM380 3C389.389 3 397 10.6112 397 20H403C403 7.29745 392.703 -3 380 -3V3ZM20 -3C7.29745 -3 -3 7.29745 -3 20H3C3 10.6112 10.6112 3 20 3V-3Z" fill="#242224" mask="url(#path-1-inside-1_2269_201)"/>
<rect x="270" y="20" width="110" height="110" rx="15" fill="#FFC700"/>
<path d="M299 67.3688C299 66.7724 299.485 66.2883 300.083 66.2883H310.917C311.515 66.2883 312 66.7724 312 67.3688C312 67.9653 311.515 68.4494 310.917 68.4494H300.083C299.485 68.4494 299 67.9653 299 67.3688ZM351 69.5299V84.7922C351 88.0251 348.955 90.7913 346.086 91.8718C346.467 92.7016 346.667 93.5963 346.667 94.5169C346.667 98.0912 343.75 101 340.167 101C336.583 101 333.667 98.0912 333.667 94.5169C333.667 93.7735 333.797 93.0452 334.048 92.3558H315.952C316.203 93.0452 316.333 93.7735 316.333 94.5169C316.333 98.0912 313.417 101 309.833 101C306.25 101 303.333 98.0912 303.333 94.5169C303.333 93.5963 303.533 92.7016 303.914 91.8718C301.045 90.7913 299 88.0251 299 84.7922V73.8519C299 73.2555 299.485 72.7714 300.083 72.7714C300.681 72.7714 301.167 73.2555 301.167 73.8519V84.7922C301.167 87.7701 303.596 90.1948 306.583 90.1948H333.667V58.7247C333.667 54.5539 330.265 51.161 326.083 51.161C325.485 51.161 325 50.677 325 50.0805C325 49.4841 325.485 49 326.083 49C331.459 49 335.833 53.3631 335.833 58.7247V59.8052H341.25C346.625 59.8052 351 64.1683 351 69.5299ZM335.833 61.9662V72.7714H348.833V69.5299C348.833 65.3591 345.432 61.9662 341.25 61.9662H335.833ZM313.567 92.3558H306.583C306.425 92.3558 306.267 92.3494 306.109 92.3407C305.708 93.0085 305.5 93.7497 305.5 94.5169C305.5 96.9005 307.444 98.839 309.833 98.839C312.223 98.839 314.167 96.9005 314.167 94.5169C314.167 93.7562 313.961 93.0193 313.567 92.3558ZM343.891 92.3407C343.735 92.3515 343.577 92.3558 343.417 92.3558H336.434C336.039 93.0193 335.833 93.7562 335.833 94.5169C335.833 96.9005 337.777 98.839 340.167 98.839C342.557 98.839 344.5 96.9005 344.5 94.5169C344.5 93.7497 344.29 93.0085 343.891 92.3407ZM348.833 84.7922V74.9325H335.833V90.1948H343.417C346.405 90.1948 348.833 87.7701 348.833 84.7922ZM300.083 51.161H319.583C320.181 51.161 320.667 50.677 320.667 50.0805C320.667 49.4841 320.181 49 319.583 49H300.083C299.485 49 299 49.4841 299 50.0805C299 50.677 299.485 51.161 300.083 51.161ZM300.083 59.8052H315.25C315.848 59.8052 316.333 59.3211 316.333 58.7247C316.333 58.1282 315.848 57.6442 315.25 57.6442H300.083C299.485 57.6442 299 58.1282 299 58.7247C299 59.3211 299.485 59.8052 300.083 59.8052Z" fill="#151315"/>
</svg>
