<svg width="380" height="300" viewBox="0 0 380 300" fill="none" xmlns="http://www.w3.org/2000/svg">
<mask id="path-1-inside-1_2214_2" fill="white">
<path fill-rule="evenodd" clip-rule="evenodd" d="M0 20C0 8.9543 8.95431 0 20 0H190H360C371.046 0 380 8.95431 380 20V110C380 121.046 371.046 130 360 130H245C225.67 130 210 145.67 210 165V280C210 291.046 201.046 300 190 300H20C8.9543 300 0 291.046 0 280V110V20Z"/>
</mask>
<path d="M20 -3C7.29745 -3 -3 7.29745 -3 20H3C3 10.6112 10.6112 3 20 3V-3ZM20 3H190V-3H20V3ZM360 -3H190V3H360V-3ZM383 20C383 7.29745 372.703 -3 360 -3V3C369.389 3 377 10.6112 377 20H383ZM383 110V20H377V110H383ZM360 133C372.703 133 383 122.703 383 110H377C377 119.389 369.389 127 360 127V133ZM245 133H360V127H245V133ZM213 165C213 147.327 227.327 133 245 133V127C224.013 127 207 144.013 207 165H213ZM207 165V280H213V165H207ZM207 280C207 289.389 199.389 297 190 297V303C202.703 303 213 292.703 213 280H207ZM190 297H20V303H190V297ZM20 297C10.6112 297 3 289.389 3 280H-3C-3 292.703 7.29745 303 20 303V297ZM3 280V110H-3V280H3ZM3 110V20H-3V110H3Z" fill="#242224" mask="url(#path-1-inside-1_2214_2)"/>
<rect x="230" y="150" width="150" height="150" rx="20" fill="#FFC700"/>
<path d="M270 214.727C270 213.924 270.653 213.273 271.458 213.273H286.042C286.847 213.273 287.5 213.924 287.5 214.727C287.5 215.53 286.847 216.182 286.042 216.182H271.458C270.653 216.182 270 215.53 270 214.727ZM340 217.636V238.182C340 242.534 337.247 246.257 333.385 247.712C333.898 248.829 334.167 250.033 334.167 251.273C334.167 256.084 330.241 260 325.417 260C320.593 260 316.667 256.084 316.667 251.273C316.667 250.272 316.842 249.292 317.18 248.364H292.82C293.158 249.292 293.333 250.272 293.333 251.273C293.333 256.084 289.408 260 284.583 260C279.759 260 275.833 256.084 275.833 251.273C275.833 250.033 276.102 248.829 276.615 247.712C272.753 246.257 270 242.534 270 238.182V223.455C270 222.652 270.653 222 271.458 222C272.263 222 272.917 222.652 272.917 223.455V238.182C272.917 242.191 276.186 245.455 280.208 245.455H316.667V203.091C316.667 197.476 312.088 192.909 306.458 192.909C305.653 192.909 305 192.257 305 191.455C305 190.652 305.653 190 306.458 190C313.695 190 319.583 195.873 319.583 203.091V204.545H326.875C334.111 204.545 340 210.419 340 217.636ZM319.583 207.455V222H337.083V217.636C337.083 212.022 332.504 207.455 326.875 207.455H319.583ZM289.609 248.364H280.208C279.995 248.364 279.782 248.355 279.57 248.343C279.03 249.242 278.75 250.24 278.75 251.273C278.75 254.481 281.366 257.091 284.583 257.091C287.8 257.091 290.417 254.481 290.417 251.273C290.417 250.249 290.14 249.257 289.609 248.364ZM330.43 248.343C330.22 248.358 330.007 248.364 329.792 248.364H320.391C319.86 249.257 319.583 250.249 319.583 251.273C319.583 254.481 322.2 257.091 325.417 257.091C328.634 257.091 331.25 254.481 331.25 251.273C331.25 250.24 330.967 249.242 330.43 248.343ZM337.083 238.182V224.909H319.583V245.455H329.792C333.814 245.455 337.083 242.191 337.083 238.182ZM271.458 192.909H297.708C298.513 192.909 299.167 192.257 299.167 191.455C299.167 190.652 298.513 190 297.708 190H271.458C270.653 190 270 190.652 270 191.455C270 192.257 270.653 192.909 271.458 192.909ZM271.458 204.545H291.875C292.68 204.545 293.333 203.894 293.333 203.091C293.333 202.288 292.68 201.636 291.875 201.636H271.458C270.653 201.636 270 202.288 270 203.091C270 203.894 270.653 204.545 271.458 204.545Z" fill="#151315"/>
</svg>
