<svg width="400" height="150" viewBox="0 0 400 150" fill="none" xmlns="http://www.w3.org/2000/svg">
<mask id="path-1-inside-1_2269_202" fill="white">
<path d="M0 20C0 8.9543 8.95431 0 20 0H380C391.046 0 400 8.95431 400 20V130C400 141.046 391.046 150 380 150H20C8.95431 150 0 141.046 0 130V20Z"/>
</mask>
<path d="M20 3H380V-3H20V3ZM397 20V130H403V20H397ZM380 147H20V153H380V147ZM3 130V20H-3V130H3ZM20 147C10.6112 147 3 139.389 3 130H-3C-3 142.703 7.29746 153 20 153V147ZM397 130C397 139.389 389.389 147 380 147V153C392.703 153 403 142.703 403 130H397ZM380 3C389.389 3 397 10.6112 397 20H403C403 7.29745 392.703 -3 380 -3V3ZM20 -3C7.29745 -3 -3 7.29745 -3 20H3C3 10.6112 10.6112 3 20 3V-3Z" fill="#242224" mask="url(#path-1-inside-1_2269_202)"/>
<rect x="270" y="20" width="110" height="110" rx="15" fill="#FFC700"/>
<path d="M336.739 81.4948C331.459 81.4948 327.167 85.8704 327.167 91.2474C327.167 96.8302 332.839 101 337.911 101H346.309C347.839 101 349.273 100.278 350.151 99.0712C350.989 97.9182 351.219 96.4878 350.783 95.1441C349.128 90.0467 345.104 81.4969 336.739 81.4969V81.4948ZM348.398 97.7968C347.928 98.4448 347.146 98.8328 346.309 98.8328H337.911C333.944 98.8328 329.333 95.519 329.333 91.2474C329.333 87.0646 332.657 83.662 336.739 83.662C343.735 83.662 347.25 91.2734 348.723 95.8116C348.944 96.4878 348.823 97.2116 348.398 97.7968ZM350.998 56.0101C350.998 54.1311 350.27 52.3669 348.944 51.0427H348.942C346.292 48.39 341.655 48.39 339.01 51.0427L302.098 87.964C300.101 89.9622 299 92.6171 299 95.4432V99.9142C299 100.512 299.485 100.998 300.083 100.998H304.555C307.381 100.998 310.035 99.8969 312.033 97.8987L348.946 60.9796C350.27 59.6554 351 57.8912 351 56.0122L350.998 56.0101ZM310.501 96.3686C308.913 97.9572 306.8 98.8328 304.555 98.8328H301.167V95.4453C301.167 93.1979 302.042 91.087 303.63 89.4984L332.43 60.6892L339.3 67.5615L310.501 96.3686ZM347.414 59.4473L340.832 66.0314L333.961 59.1591L340.544 52.575C342.37 50.7436 345.581 50.7436 347.41 52.575C348.324 53.4939 348.831 54.714 348.831 56.0122C348.831 57.3104 348.328 58.5327 347.414 59.4473ZM300.751 60.6675C299.488 59.2089 298.885 57.3971 299.02 55.5224C299.154 53.6478 300.007 51.94 301.42 50.7133C302.839 49.4845 304.642 48.8841 306.527 49.0185C308.401 49.1529 310.109 50.0068 311.333 51.422L320.418 62.3818C320.799 62.8434 320.736 63.5261 320.277 63.9075C319.811 64.2911 319.131 64.2261 318.751 63.7666L309.68 52.8242C308.847 51.8619 307.669 51.2725 306.371 51.1793C305.086 51.0882 303.823 51.5 302.844 52.3496C301.862 53.2013 301.273 54.3825 301.18 55.6785C301.089 56.9767 301.503 58.2293 302.352 59.2068L312.717 69.9737C313.131 70.4049 313.12 71.0898 312.687 71.5059C312.477 71.7075 312.206 71.8093 311.935 71.8093C311.651 71.8093 311.367 71.6988 311.155 71.4777L300.751 60.6675Z" fill="#151315"/>
</svg>
