<svg width="380" height="300" viewBox="0 0 380 300" fill="none" xmlns="http://www.w3.org/2000/svg">
<mask id="path-1-inside-1_2216_3" fill="white">
<path fill-rule="evenodd" clip-rule="evenodd" d="M0 20C0 8.9543 8.95431 0 20 0H190H360C371.046 0 380 8.95431 380 20V110C380 121.046 371.046 130 360 130H245C225.67 130 210 145.67 210 165V280C210 291.046 201.046 300 190 300H20C8.9543 300 0 291.046 0 280V110V20Z"/>
</mask>
<path d="M20 -3C7.29745 -3 -3 7.29745 -3 20H3C3 10.6112 10.6112 3 20 3V-3ZM20 3H190V-3H20V3ZM360 -3H190V3H360V-3ZM383 20C383 7.29745 372.703 -3 360 -3V3C369.389 3 377 10.6112 377 20H383ZM383 110V20H377V110H383ZM360 133C372.703 133 383 122.703 383 110H377C377 119.389 369.389 127 360 127V133ZM245 133H360V127H245V133ZM213 165C213 147.327 227.327 133 245 133V127C224.013 127 207 144.013 207 165H213ZM207 165V280H213V165H207ZM207 280C207 289.389 199.389 297 190 297V303C202.703 303 213 292.703 213 280H207ZM190 297H20V303H190V297ZM20 297C10.6112 297 3 289.389 3 280H-3C-3 292.703 7.29745 303 20 303V297ZM3 280V110H-3V280H3ZM3 110V20H-3V110H3Z" fill="#242224" mask="url(#path-1-inside-1_2216_3)"/>
<rect x="230" y="150" width="150" height="150" rx="20" fill="#FFC700"/>
<path d="M320.802 233.743C313.695 233.743 307.917 239.633 307.917 246.871C307.917 254.387 315.553 260 322.38 260H333.685C335.745 260 337.675 259.028 338.857 257.403C339.985 255.851 340.295 253.926 339.708 252.117C337.48 245.255 332.064 233.746 320.802 233.746V233.743ZM336.497 255.688C335.864 256.56 334.811 257.083 333.685 257.083H322.38C317.04 257.083 310.833 252.622 310.833 246.871C310.833 241.241 315.307 236.66 320.802 236.66C330.22 236.66 334.951 246.906 336.935 253.016C337.232 253.926 337.069 254.9 336.497 255.688ZM339.997 199.437C339.997 196.907 339.017 194.532 337.232 192.75H337.229C333.662 189.179 327.42 189.179 323.859 192.75L274.171 242.452C271.482 245.141 270 248.715 270 252.52V258.538C270 259.344 270.653 259.997 271.458 259.997H277.478C281.282 259.997 284.855 258.515 287.544 255.825L337.235 206.126C339.017 204.344 340 201.969 340 199.44L339.997 199.437ZM285.482 253.765C283.344 255.904 280.5 257.083 277.478 257.083H272.917V252.523C272.917 249.497 274.095 246.656 276.233 244.517L315.001 205.735L324.25 214.987L285.482 253.765ZM335.173 204.064L326.312 212.927L317.063 203.676L325.924 194.812C328.383 192.347 332.705 192.347 335.167 194.812C336.398 196.049 337.08 197.692 337.08 199.44C337.08 201.187 336.404 202.833 335.173 204.064ZM272.357 205.706C270.656 203.743 269.845 201.304 270.026 198.78C270.207 196.257 271.356 193.958 273.258 192.306C275.168 190.652 277.595 189.844 280.133 190.025C282.655 190.206 284.954 191.355 286.602 193.26L298.831 208.014C299.345 208.635 299.26 209.554 298.642 210.068C298.015 210.584 297.099 210.497 296.588 209.878L284.376 195.148C283.256 193.853 281.67 193.059 279.922 192.934C278.193 192.811 276.493 193.365 275.174 194.509C273.853 195.656 273.06 197.246 272.934 198.99C272.812 200.738 273.369 202.424 274.512 203.74L288.465 218.234C289.023 218.814 289.008 219.736 288.425 220.296C288.142 220.568 287.777 220.705 287.413 220.705C287.03 220.705 286.648 220.556 286.363 220.258L272.357 205.706Z" fill="#151315"/>
</svg>
