<svg width="151" height="56" viewBox="0 0 151 56" fill="none" xmlns="http://www.w3.org/2000/svg">
<path d="M122.801 56C138.265 56 150.801 43.464 150.801 28C150.801 12.536 138.265 0 122.801 0C107.337 0 94.8008 12.536 94.8008 28C94.8008 43.464 107.337 56 122.801 56Z" fill="#FFC700"/>
<path d="M3.25195 13.6719V24.2188H7.17188C8.07418 24.2188 8.84768 23.8613 9.49218 23.1465C10.1485 22.4199 10.7696 21.2891 11.3555 19.7539C11.9531 18.2188 12.5508 16.1914 13.1485 13.6719H16.5235C15.7031 17.3398 14.7949 20.1172 13.7988 22.0039C12.8145 23.8789 11.5781 25.0566 10.0899 25.5371C11.168 25.9238 12.0586 26.4453 12.7617 27.1016C13.4766 27.7461 14.0918 28.5605 14.6074 29.5449C15.1231 30.5293 15.5742 31.7188 15.961 33.1133C16.3594 34.4961 16.7988 36.125 17.2793 38H13.8692C12.8965 34.3203 12.1289 31.8594 11.5664 30.6172C11.0039 29.375 10.3535 28.4785 9.61528 27.9277C8.88868 27.3652 7.96288 27.084 6.83788 27.084H3.25195V38H0V13.6719H3.25195ZM18.334 41.9199C19.0957 42.2598 19.9805 42.4297 20.9883 42.4297C22.4063 42.4297 23.6074 41.1465 24.5918 38.5801L25.207 36.998L18.4746 19.5605H21.7442L26.8242 33.0605L31.9395 19.5605H35.1035L27.2285 39.4062C26.3965 41.4336 25.5059 42.8633 24.5567 43.6953C23.6074 44.5273 22.3711 44.9434 20.8477 44.9434C20.2969 44.9434 19.711 44.8906 19.0899 44.7852C18.4688 44.6797 17.9649 44.5566 17.5781 44.416L18.334 41.9199ZM48.3926 38L44.1563 30.9863L39.7617 38H36.334L42.4512 28.8945L36.4043 19.5605H40.1133L44.3672 26.5566L48.7266 19.5605H52.1719L46.0547 28.6836L52.1719 38H48.3926ZM71.0156 38H68.0625V29.7207H59.0977V38H56.1446V19.5605H59.0977V27.2773H68.0625V19.5605H71.0156V38ZM80.1914 38H76.9922V19.5605H79.8399V34.1152L88.875 19.5605H91.9336V38H89.086V23.7441L80.1914 38ZM101.936 36.2773C101.936 37.0156 101.76 37.5312 101.408 37.8242C101.069 38.1055 100.524 38.2461 99.7738 38.2461C98.9418 38.2461 98.3788 38.0762 98.0858 37.7363C97.8048 37.3848 97.6638 36.8984 97.6638 36.2773C97.6638 35.5742 97.8218 35.0703 98.1388 34.7656C98.4668 34.4492 99.0118 34.291 99.7738 34.291C100.571 34.291 101.127 34.4492 101.444 34.7656C101.772 35.0703 101.936 35.5742 101.936 36.2773ZM123.276 28.6484C123.276 31.6719 122.613 34.0801 121.289 35.873C119.977 37.6543 118.166 38.5449 115.858 38.5449C114.018 38.5449 112.301 37.8594 110.707 36.4883V44.9434H107.684V19.5605H110.707V21.4062C111.399 20.7383 112.231 20.1758 113.203 19.7188C114.176 19.2617 115.219 19.0332 116.332 19.0332C118.524 19.0332 120.229 19.8652 121.447 21.5293C122.666 23.1816 123.276 25.5547 123.276 28.6484ZM120.147 28.7188C120.147 24.0547 118.682 21.7227 115.752 21.7227C114.791 21.7227 113.871 21.9629 112.992 22.4434C112.113 22.9238 111.352 23.4746 110.707 24.0957V33.8516C112.278 35.1758 113.86 35.8379 115.453 35.8379C116.824 35.8379 117.949 35.2637 118.828 34.1152C119.707 32.9668 120.147 31.168 120.147 28.7188ZM125.842 41.9199C126.604 42.2598 127.489 42.4297 128.496 42.4297C129.914 42.4297 131.115 41.1465 132.1 38.5801L132.715 36.998L125.983 19.5605H129.252L134.332 33.0605L139.447 19.5605H142.612L134.737 39.4062C133.905 41.4336 133.014 42.8633 132.065 43.6953C131.115 44.5273 129.879 44.9434 128.356 44.9434C127.805 44.9434 127.219 44.8906 126.598 44.7852C125.977 44.6797 125.473 44.5566 125.086 44.416L125.842 41.9199Z" fill="white"/>
</svg>
