<svg width="400" height="150" viewBox="0 0 400 150" fill="none" xmlns="http://www.w3.org/2000/svg">
<mask id="path-1-inside-1_2269_203" fill="white">
<path d="M0 20C0 8.9543 8.95431 0 20 0H380C391.046 0 400 8.95431 400 20V130C400 141.046 391.046 150 380 150H20C8.95431 150 0 141.046 0 130V20Z"/>
</mask>
<path d="M20 3H380V-3H20V3ZM397 20V130H403V20H397ZM380 147H20V153H380V147ZM3 130V20H-3V130H3ZM20 147C10.6112 147 3 139.389 3 130H-3C-3 142.703 7.29746 153 20 153V147ZM397 130C397 139.389 389.389 147 380 147V153C392.703 153 403 142.703 403 130H397ZM380 3C389.389 3 397 10.6112 397 20H403C403 7.29745 392.703 -3 380 -3V3ZM20 -3C7.29745 -3 -3 7.29745 -3 20H3C3 10.6112 10.6112 3 20 3V-3Z" fill="#242224" mask="url(#path-1-inside-1_2269_203)"/>
<rect x="270" y="20" width="110" height="110" rx="15" fill="#FFC700"/>
<path d="M343.417 79.3333H320.667V56.5833C320.667 52.4017 317.265 49 313.083 49H306.583C302.402 49 299 52.4017 299 56.5833V91.25C299 96.6255 303.375 101 308.75 101H343.417C347.598 101 351 97.5983 351 93.4167V86.9167C351 82.735 347.598 79.3333 343.417 79.3333ZM348.833 93.4167C348.833 96.4045 346.405 98.8333 343.417 98.8333H308.75C304.568 98.8333 301.167 95.4317 301.167 91.25V56.5833C301.167 53.5955 303.598 51.1667 306.583 51.1667H313.083C316.069 51.1667 318.5 53.5955 318.5 56.5833V57.6667H313.083C312.485 57.6667 312 58.152 312 58.75C312 59.348 312.485 59.8333 313.083 59.8333H318.5V68.5H313.083C312.485 68.5 312 68.9853 312 69.5833C312 70.1813 312.485 70.6667 313.083 70.6667H318.5V79.3333H313.083C312.485 79.3333 312 79.8187 312 80.4167C312 81.0147 312.485 81.5 313.083 81.5H318.5V86.9167C318.5 87.5147 318.985 88 319.583 88C320.181 88 320.667 87.5147 320.667 86.9167V81.5H329.333V86.9167C329.333 87.5147 329.819 88 330.417 88C331.015 88 331.5 87.5147 331.5 86.9167V81.5H340.167V86.9167C340.167 87.5147 340.652 88 341.25 88C341.848 88 342.333 87.5147 342.333 86.9167V81.5H343.417C346.405 81.5 348.833 83.9288 348.833 86.9167V93.4167Z" fill="#151315"/>
</svg>
