<svg width="380" height="300" viewBox="0 0 380 300" fill="none" xmlns="http://www.w3.org/2000/svg">
<mask id="path-1-inside-1_2216_4" fill="white">
<path fill-rule="evenodd" clip-rule="evenodd" d="M0 20C0 8.9543 8.95431 0 20 0H190H360C371.046 0 380 8.95431 380 20V110C380 121.046 371.046 130 360 130H245C225.67 130 210 145.67 210 165V280C210 291.046 201.046 300 190 300H20C8.9543 300 0 291.046 0 280V110V20Z"/>
</mask>
<path d="M20 -3C7.29745 -3 -3 7.29745 -3 20H3C3 10.6112 10.6112 3 20 3V-3ZM20 3H190V-3H20V3ZM360 -3H190V3H360V-3ZM383 20C383 7.29745 372.703 -3 360 -3V3C369.389 3 377 10.6112 377 20H383ZM383 110V20H377V110H383ZM360 133C372.703 133 383 122.703 383 110H377C377 119.389 369.389 127 360 127V133ZM245 133H360V127H245V133ZM213 165C213 147.327 227.327 133 245 133V127C224.013 127 207 144.013 207 165H213ZM207 165V280H213V165H207ZM207 280C207 289.389 199.389 297 190 297V303C202.703 303 213 292.703 213 280H207ZM190 297H20V303H190V297ZM20 297C10.6112 297 3 289.389 3 280H-3C-3 292.703 7.29745 303 20 303V297ZM3 280V110H-3V280H3ZM3 110V20H-3V110H3Z" fill="#242224" mask="url(#path-1-inside-1_2216_4)"/>
<rect x="230" y="150" width="150" height="150" rx="20" fill="#FFC700"/>
<path d="M329.792 230.833H299.167V200.208C299.167 194.579 294.587 190 288.958 190H280.208C274.579 190 270 194.579 270 200.208V246.875C270 254.111 275.889 260 283.125 260H329.792C335.421 260 340 255.421 340 249.792V241.042C340 235.413 335.421 230.833 329.792 230.833ZM337.083 249.792C337.083 253.814 333.814 257.083 329.792 257.083H283.125C277.496 257.083 272.917 252.504 272.917 246.875V200.208C272.917 196.186 276.189 192.917 280.208 192.917H288.958C292.978 192.917 296.25 196.186 296.25 200.208V201.667H288.958C288.153 201.667 287.5 202.32 287.5 203.125C287.5 203.93 288.153 204.583 288.958 204.583H296.25V216.25H288.958C288.153 216.25 287.5 216.903 287.5 217.708C287.5 218.513 288.153 219.167 288.958 219.167H296.25V230.833H288.958C288.153 230.833 287.5 231.487 287.5 232.292C287.5 233.097 288.153 233.75 288.958 233.75H296.25V241.042C296.25 241.847 296.903 242.5 297.708 242.5C298.513 242.5 299.167 241.847 299.167 241.042V233.75H310.833V241.042C310.833 241.847 311.487 242.5 312.292 242.5C313.097 242.5 313.75 241.847 313.75 241.042V233.75H325.417V241.042C325.417 241.847 326.07 242.5 326.875 242.5C327.68 242.5 328.333 241.847 328.333 241.042V233.75H329.792C333.814 233.75 337.083 237.02 337.083 241.042V249.792Z" fill="#151315"/>
</svg>
