<svg width="23" height="23" viewBox="0 0 23 23" fill="none" xmlns="http://www.w3.org/2000/svg">
<path d="M17.5494 13.7682C17.0943 13.2944 16.5455 13.0411 15.9638 13.0411C15.3868 13.0411 14.8333 13.2897 14.3595 13.7635L12.8772 15.2411C12.7552 15.1755 12.6332 15.1145 12.516 15.0535C12.3471 14.9691 12.1876 14.8893 12.0516 14.8049C10.6631 13.923 9.40119 12.7737 8.19092 11.2867C7.60456 10.5455 7.21052 9.92162 6.92437 9.28834C7.30903 8.93652 7.66554 8.57062 8.01267 8.2188C8.14402 8.08746 8.27536 7.95142 8.40671 7.82007C9.39181 6.83498 9.39181 5.55904 8.40671 4.57394L7.12608 3.29331C6.98066 3.1479 6.83055 2.99779 6.68982 2.84768C6.40837 2.55684 6.11284 2.25662 5.80793 1.97516C5.3529 1.52483 4.80875 1.28559 4.23646 1.28559C3.66417 1.28559 3.11063 1.52483 2.64154 1.97516C2.63685 1.97985 2.63685 1.97985 2.63216 1.98454L1.03724 3.59354C0.436796 4.19398 0.0943576 4.92576 0.0193025 5.77482C-0.0932801 7.14458 0.310141 8.42052 0.619743 9.2555C1.37968 11.3054 2.51488 13.2053 4.20831 15.2411C6.26295 17.6945 8.73507 19.6319 11.559 20.9969C12.6379 21.5082 14.0781 22.1134 15.6871 22.2166C15.7856 22.2213 15.8888 22.226 15.9826 22.226C17.0662 22.226 17.9762 21.8366 18.6893 21.0626C18.6939 21.0532 18.7033 21.0485 18.708 21.0392C18.9519 20.7436 19.2334 20.4762 19.5289 20.1901C19.7306 19.9978 19.937 19.7961 20.1388 19.585C20.6032 19.1018 20.8471 18.5389 20.8471 17.9619C20.8471 17.3802 20.5985 16.822 20.1247 16.3529L17.5494 13.7682ZM19.2287 18.7078C19.224 18.7078 19.224 18.7124 19.2287 18.7078C19.0458 18.9048 18.8581 19.083 18.6564 19.28C18.3515 19.5709 18.0419 19.8758 17.7511 20.2182C17.2773 20.7249 16.7191 20.9641 15.9873 20.9641C15.9169 20.9641 15.8419 20.9641 15.7715 20.9594C14.3783 20.8703 13.0836 20.3261 12.1126 19.8617C9.45748 18.5764 7.12608 16.7516 5.18872 14.439C3.58911 12.511 2.51958 10.7285 1.81124 8.81455C1.37499 7.64651 1.21549 6.73647 1.28586 5.87802C1.33277 5.32918 1.54386 4.87416 1.93321 4.48481L3.53282 2.8852C3.76267 2.66942 4.0066 2.55215 4.24584 2.55215C4.54137 2.55215 4.78061 2.7304 4.93072 2.88051C4.93541 2.8852 4.9401 2.88989 4.94479 2.89458C5.23094 3.16197 5.50301 3.43873 5.78916 3.73426C5.93458 3.88437 6.08469 4.03448 6.2348 4.18928L7.51543 5.46991C8.01267 5.96715 8.01267 6.42686 7.51543 6.9241C7.37939 7.06014 7.24804 7.19618 7.11201 7.32753C6.71797 7.73095 6.34269 8.10622 5.93458 8.47212C5.9252 8.4815 5.91582 8.48619 5.91113 8.49557C5.50771 8.89899 5.58276 9.29303 5.6672 9.56041C5.67189 9.57449 5.67658 9.58856 5.68127 9.60263C6.01433 10.4095 6.48342 11.1694 7.19644 12.0748L7.20114 12.0795C8.49584 13.6744 9.8609 14.9175 11.3667 15.8697C11.559 15.9917 11.756 16.0902 11.9437 16.184C12.1126 16.2685 12.272 16.3482 12.4081 16.4326C12.4268 16.442 12.4456 16.4561 12.4644 16.4655C12.6239 16.5452 12.774 16.5828 12.9288 16.5828C13.3181 16.5828 13.5621 16.3388 13.6418 16.2591L15.2461 14.6548C15.4056 14.4953 15.6589 14.303 15.9544 14.303C16.2453 14.303 16.4845 14.4859 16.6299 14.6454C16.6346 14.6501 16.6346 14.6501 16.6393 14.6548L19.224 17.2395C19.7072 17.718 19.7072 18.2105 19.2287 18.7078Z" fill="#737373"/>
<path d="M11.9953 5.28697C13.2243 5.49337 14.3407 6.07504 15.232 6.96632C16.1233 7.8576 16.7003 8.97405 16.9114 10.2031C16.963 10.5127 17.2304 10.7285 17.5353 10.7285C17.5728 10.7285 17.6056 10.7238 17.6432 10.7191C17.9903 10.6628 18.2201 10.3344 18.1639 9.98729C17.9105 8.50026 17.2069 7.14458 16.1327 6.07035C15.0585 4.99613 13.7028 4.29249 12.2157 4.03918C11.8686 3.98288 11.5449 4.21274 11.484 4.55518C11.423 4.89762 11.6481 5.23067 11.9953 5.28697Z" fill="#737373"/>
<path d="M22.1841 9.80434C21.7666 7.35567 20.6126 5.12747 18.8394 3.3543C17.0662 1.58112 14.8381 0.427149 12.3894 0.00965465C12.0469 -0.0513276 11.7233 0.18322 11.6623 0.525658C11.606 0.872788 11.8358 1.19646 12.183 1.25745C14.369 1.62803 16.3626 2.66473 17.9481 4.24558C19.5337 5.83111 20.5657 7.82477 20.9363 10.0107C20.9879 10.3203 21.2553 10.5361 21.5602 10.5361C21.5977 10.5361 21.6305 10.5314 21.6681 10.5267C22.0105 10.4751 22.245 10.1468 22.1841 9.80434Z" fill="#737373"/>
</svg>
