<svg width="23" height="23" viewBox="0 0 23 23" fill="none" xmlns="http://www.w3.org/2000/svg">
<path d="M22.31 11.04L11.96 0.69C11.5575 0.23 10.9825 0 10.35 0H2.3C1.035 0 0 1.035 0 2.3V10.35C0 10.9825 0.23 11.5575 0.69 11.96L11.04 22.31C11.4425 22.7125 12.0175 23 12.65 23C13.2825 23 13.8575 22.7125 14.26 22.31L22.31 14.26C22.7125 13.8575 23 13.2825 23 12.65C23 12.0175 22.7125 11.4425 22.31 11.04ZM4.025 5.75C3.0475 5.75 2.3 5.0025 2.3 4.025C2.3 3.0475 3.0475 2.3 4.025 2.3C5.0025 2.3 5.75 3.0475 5.75 4.025C5.75 5.0025 5.0025 5.75 4.025 5.75Z" fill="#FFC700"/>
</svg>
