<svg width="46" height="46" viewBox="0 0 46 46" fill="none" xmlns="http://www.w3.org/2000/svg">
<path d="M17.2499 45.9999H1.91665C1.40833 45.9999 0.920817 45.798 0.561375 45.4386C0.201933 45.0793 0 44.5919 0 44.0837C0 43.5755 0.201933 43.0882 0.561375 42.7288C0.920817 42.3695 1.40833 42.1676 1.91665 42.1676H17.2499C17.7582 42.1676 18.2457 42.3695 18.6052 42.7288C18.9646 43.0882 19.1665 43.5755 19.1665 44.0837C19.1665 44.5919 18.9646 45.0793 18.6052 45.4386C18.2457 45.798 17.7582 45.9999 17.2499 45.9999Z" fill="white"/>
<path d="M13.4166 38.3354H1.91665C1.40833 38.3354 0.920817 38.1336 0.561375 37.7742C0.201933 37.4149 0 36.9275 0 36.4193C0 35.9111 0.201933 35.4237 0.561375 35.0644C0.920817 34.7051 1.40833 34.5032 1.91665 34.5032H13.4166C13.9249 34.5032 14.4124 34.7051 14.7719 35.0644C15.1313 35.4237 15.3332 35.9111 15.3332 36.4193C15.3332 36.9275 15.1313 37.4149 14.7719 37.7742C14.4124 38.1336 13.9249 38.3354 13.4166 38.3354Z" fill="white"/>
<path d="M9.58258 30.671H1.91652C1.40822 30.671 0.920751 30.4691 0.561335 30.1098C0.201918 29.7504 0 29.2631 0 28.7549C0 28.2467 0.201918 27.7593 0.561335 27.4C0.920751 27.0406 1.40822 26.8387 1.91652 26.8387H9.58258C10.0909 26.8387 10.5783 27.0406 10.9378 27.4C11.2972 27.7593 11.4991 28.2467 11.4991 28.7549C11.4991 29.2631 11.2972 29.7504 10.9378 30.1098C10.5783 30.4691 10.0909 30.671 9.58258 30.671Z" fill="white"/>
<path d="M24.9165 45.9138C24.4082 45.9364 23.9117 45.7562 23.5362 45.4129C23.1608 45.0695 22.9372 44.5911 22.9145 44.0829C22.8919 43.5747 23.0722 43.0784 23.4156 42.703C23.7591 42.3277 24.2376 42.1041 24.7459 42.0815C28.3731 41.7497 31.8306 40.3916 34.7135 38.1661C37.5964 35.9406 39.7854 32.9399 41.0239 29.5156C42.2625 26.0912 42.4994 22.3849 41.7069 18.8308C40.9144 15.2767 39.1253 12.0219 36.5492 9.4477C33.973 6.87347 30.7166 5.08637 27.1611 4.29573C23.6057 3.50508 19.8985 3.74363 16.4738 4.98341C13.049 6.2232 10.0486 8.4129 7.82382 11.296C5.59905 14.1792 4.24209 17.6364 3.91188 21.2628C3.86613 21.7689 3.62113 22.2362 3.23077 22.5617C2.84042 22.8873 2.33669 23.0445 1.83039 22.9988C1.3241 22.953 0.856713 22.7081 0.531058 22.3178C0.205403 21.9276 0.0481542 21.424 0.0939037 20.9178C0.628437 15.0225 3.41662 9.56036 7.87807 5.66844C12.3395 1.77652 18.1305 -0.245321 24.0455 0.0237956C29.9605 0.292912 35.5438 2.83225 39.6332 7.11321C43.7226 11.3942 46.003 17.0869 45.9997 23.0064C46.0291 28.7517 43.8941 34.2974 40.0195 38.5405C36.1449 42.7837 30.8147 45.4132 25.089 45.9061C25.0315 45.9119 24.9721 45.9138 24.9165 45.9138Z" fill="white"/>
<path d="M22.9998 11.5096C22.4915 11.5096 22.004 11.7115 21.6446 12.0709C21.2852 12.4302 21.0833 12.9176 21.0833 13.4258V23.0064C21.0834 23.5146 21.2854 24.0019 21.6448 24.3611L27.3943 30.1095C27.7558 30.4586 28.2399 30.6517 28.7424 30.6473C29.2449 30.643 29.7256 30.4415 30.081 30.0862C30.4363 29.7309 30.6378 29.2503 30.6422 28.7479C30.6466 28.2455 30.4534 27.7615 30.1043 27.4001L24.9163 22.2132V13.4258C24.9163 12.9176 24.7144 12.4302 24.355 12.0709C23.9955 11.7115 23.5081 11.5096 22.9998 11.5096Z" fill="white"/>
</svg>
